<?xml version="1.0" encoding="UTF-8" standalone="no"?>
<svg width="147px" height="231px" viewBox="0 0 147 231" version="1.1" xmlns="http://www.w3.org/2000/svg" xmlns:xlink="http://www.w3.org/1999/xlink">
    <!-- Generator: Sketch 39.1 (31720) - http://www.bohemiancoding.com/sketch -->
    <title>bulb</title>
    <desc>Created with Sketch.</desc>
    <defs></defs>
    <g id="Page-1" stroke="none" stroke-width="1" fill="none" fill-rule="evenodd">
        <g id="bulb" fill="#000000">
            <path d="M141.50072,71.5816 C141.50072,37.71888 109.83808,8 73.75036,8 C37.66264,8 6,37.71888 6,71.5816 C6,102.0196 17.58424,113.31192 27.805,123.26924 C37.49888,132.71392 45.83996,140.88768 45.93964,164.3908 C45.61924,164.98888 45.38072,165.62968 45.38072,166.35236 L45.38072,197.04312 C45.38072,205.66544 52.29424,212.67152 60.84536,212.91004 C62.58264,218.31768 67.59156,222.2408 73.58304,222.2408 C79.56384,222.2408 84.5692,218.31768 86.33496,212.92428 C95.04272,212.85308 102.10576,205.76156 102.10576,197.01464 L102.10576,166.32388 C102.10576,166.30964 102.09152,166.30964 102.09152,166.2954 C102.09152,166.01772 101.98116,165.74004 101.9242,165.44812 C101.8708,165.18468 101.85656,164.90344 101.75688,164.66848 C101.75688,164.65424 101.75688,164.65424 101.74264,164.64 C101.71772,164.55812 101.63228,164.50116 101.58956,164.43352 C101.98116,141.84888 110.18696,133.4366 119.70996,123.83884 C129.93072,113.61808 141.50072,101.98044 141.50072,71.5816 L141.50072,71.5816 Z M63.14156,122.99156 C58.57764,103.50768 52.90656,79.25696 57.77308,73.10884 C58.23232,72.53924 58.94076,71.94116 60.67804,71.94116 C63.19496,71.94116 66.28504,74.3762 69.05116,77.87924 C65.58728,83.98464 63.39076,90.90884 63.39076,96.16696 C63.39076,99.36384 64.15616,101.99468 65.65848,103.98116 C66.93652,105.67928 69.37156,107.68 73.68272,107.68 C78.22884,107.68 80.81696,105.62232 82.17688,103.89928 C83.83228,101.81312 84.66888,99.04344 84.66888,95.69348 C84.66888,90.49232 82.49728,83.80308 79.04764,77.87924 C81.67848,74.36196 84.48732,71.94116 86.50228,71.94116 C88.79848,71.94116 89.72764,72.73504 90.25808,73.42924 C95.22072,79.78384 89.32536,103.44004 84.58344,122.4362 C81.06616,136.50888 77.61652,150.83076 76.8796,162.18004 L70.30072,162.18004 C69.60652,151.13692 66.3954,136.95388 63.14156,122.99156 L63.14156,122.99156 Z M71.72116,96.16696 C71.72116,93.23352 72.65388,89.79812 74.09924,86.45884 C75.46272,89.64504 76.32424,92.89888 76.32424,95.69348 C76.32424,97.0712 76.07504,98.16768 75.62648,98.7266 C75.51612,98.87968 75.14232,99.33536 73.68272,99.33536 C72.61116,99.33536 72.40112,99.03276 72.305,98.93308 C72.16616,98.76576 71.72116,98.04308 71.72116,96.16696 L71.72116,96.16696 Z M93.76112,180.9804 L53.9888,198.42084 C53.90692,197.9616 53.71112,197.54152 53.71112,197.05736 L53.71112,190.31116 L93.74688,172.76392 L93.74688,180.9804 L93.76112,180.9804 Z M78.03304,170.53536 L53.72536,181.19044 L53.72536,170.53536 L78.03304,170.53536 Z M86.21036,204.62236 L61.29036,204.62236 C61.12304,204.62236 60.9842,204.53692 60.83112,204.52268 L93.77536,190.09044 L93.77536,197.04312 C93.76112,201.22968 90.38268,204.62236 86.21036,204.62236 L86.21036,204.62236 Z M93.38732,162.19428 L85.23848,162.19428 C86.00388,151.70652 89.31112,137.98272 92.68956,124.4654 C98.91956,99.46352 104.31652,77.87924 96.83696,68.31352 C95.16732,66.1704 92.0096,63.61076 86.50228,63.61076 C82.08076,63.61076 77.68772,66.55844 73.9604,70.85536 C70.05152,66.54776 65.41996,63.61076 60.67804,63.61076 C56.74424,63.61076 53.4904,65.09884 51.23692,67.93616 C43.86772,77.22776 49.02616,99.32468 55.00696,124.89616 C58.12196,138.21768 61.33308,151.95928 62.08424,162.19428 L54.15612,162.19428 C53.47616,136.89692 43.42272,126.87196 33.61848,117.30268 C23.70388,107.64084 14.3304,98.51656 14.3304,71.59584 C14.3304,42.16888 42.08772,16.35888 73.73612,16.35888 C105.38808,16.35888 133.1454,42.16888 133.1454,71.59584 C133.1454,98.55928 123.74344,108.0004 113.8146,118.01468 C104.19192,127.67652 94.37344,137.85812 93.38732,162.19428 L93.38732,162.19428 Z" id="Page-1"></path>
        </g>
    </g>
</svg>