<?xml version="1.0" encoding="UTF-8" standalone="no"?>
<svg width="4835px" height="1476px" viewBox="0 0 4835 1476" version="1.1" xmlns="http://www.w3.org/2000/svg" xmlns:xlink="http://www.w3.org/1999/xlink">
    <!-- Generator: Sketch 39.1 (31720) - http://www.bohemiancoding.com/sketch -->
    <title>platforms</title>
    <desc>Created with Sketch.</desc>
    <defs></defs>
    <g id="Page-1" stroke="none" stroke-width="1" fill="none" fill-rule="evenodd">
        <g id="platforms">
            <g id="Layer-1" transform="translate(1693.000000, 137.000000)" fill="#000000">
                <path d="M492.646635,634.228365 L492.646635,1104.48197 L0,1036.58053 L0,634.228365 L492.646635,634.228365 L492.646635,634.228365 Z M492.646635,97.5180288 L492.646635,573.550481 L0,573.550481 L0,165.419471 L492.646635,97.5180288 L492.646635,97.5180288 Z M1202,634.228365 L1202,1202 L546.823317,1111.70553 L546.823317,634.228365 L1202,634.228365 L1202,634.228365 Z M1202,0 L1202,573.550481 L546.823317,573.550481 L546.823317,90.2944712 L1202,0 L1202,0 Z" id="svg_1"></path>
            </g>
            <g id="Group" transform="translate(541.083780, 667.952370) scale(1, -1) rotate(0.000000) translate(-541.083780, -667.952370) translate(60.583780, 97.452370)" fill="#000000">
                <path d="M707.231217,1139.57217 C658.069675,1133.58851 599.850561,1106.06372 562.993646,1071.30155 C516.053773,1027.07952 485.520069,966.95807 480.507073,908.660209 C479.823483,900.568032 480.051346,877.203298 480.905834,872.587339 L481.247629,870.649775 L493.609222,870.649775 C518.617237,870.649775 539.011017,874.752851 562.082192,884.497654 C608.395441,903.987262 655.620143,947.012565 685.69812,997.275237 C703.414504,1026.90856 713.668359,1055.91502 718.33956,1089.65142 C719.421912,1097.68661 720.105502,1126.69307 719.364946,1134.84223 L718.909219,1140.19903 L716.516653,1140.313 C715.206438,1140.36999 710.990964,1140.02806 707.231217,1139.57217 L707.231217,1139.57217 Z" id="Shape"></path>
                <path d="M684.330939,870.022917 C651.860396,867.800418 620.130409,859.993177 571.139765,842.213184 C543.967047,832.354406 513.490309,822.324667 501.185682,819.24736 C491.900246,816.967874 488.824089,816.625951 482.785708,817.366784 C469.911422,819.019412 442.11208,827.510498 405.767858,840.90248 C353.701057,860.050164 322.825558,867.287533 293.31724,867.230546 C234.35757,867.116572 175.397899,846.829144 126.122426,809.730505 C90.006067,782.490644 60.6686465,746.816685 38.5089249,703.107536 C17.0897596,660.709091 5.01299614,614.43552 0.740556248,557.7333 C-0.227863461,545.196125 -0.227863461,505.02018 0.740556248,491.571211 C4.61423508,436.464631 14.2414663,387.284715 31.7299869,332.748006 C54.6302647,261.229125 86.7590127,196.434728 127.43264,139.732507 C154.434461,102.177971 174.315548,77.7304813 193.968771,58.0129252 C220.685762,31.342936 242.503688,16.0133909 266.31542,7.23736886 C301.748188,-5.7557028 335.47198,-1.59564038 399.843408,23.6496699 C421.490437,32.1977434 438.352333,37.3265874 456.638376,40.9737654 C490.646997,47.7552371 519.300827,47.5842756 551.999234,40.3469067 C569.259891,36.5287672 582.36204,32.3117177 605.547147,23.2507598 C639.783632,9.8017909 663.3675,3.64717801 687.691925,1.70961469 C720.105502,-0.797820189 754.683782,10.4856368 784.47693,33.3374865 C811.364818,53.9098499 837.398219,83.5431713 873.799407,134.660651 C908.60555,183.555631 934.126258,232.393624 954.520038,289.038857 C956.741706,295.136483 958.906409,301.120134 959.362136,302.373852 L960.27359,304.653338 L956.513843,306.248978 C933.556599,316.107757 908.947345,331.836212 889.066258,349.331269 C835.746209,396.231698 808.17473,450.996356 802.876904,520.178764 C801.965451,532.146066 802.478143,560.411696 803.788358,571.467204 C807.149344,599.61886 813.985248,623.610452 825.321455,647.146148 C844.632884,687.265106 876.248939,721.571374 920.169621,750.12194 C925.125651,753.31322 929.170228,756.105591 929.170228,756.33354 C929.170228,756.504501 927.176422,759.296872 924.783856,762.431165 C890.14861,808.647749 844.974679,839.534788 787.09736,856.573948 C753.943226,866.375739 711.617588,871.903493 684.330939,870.022917 L684.330939,870.022917 Z" id="Shape"></path>
            </g>
            <g id="Group" transform="translate(3590.000000, 146.000000)">
                <path d="M1182.76769,591.390106 C1182.76769,917.986954 917.991127,1182.76352 591.377588,1182.76352 C264.764049,1182.76352 0,917.991127 0,591.390106 C0,264.768222 264.759877,0 591.373415,0 C917.986954,0 1182.76769,264.768222 1182.76769,591.390106 L1182.76769,591.390106 Z" id="Shape" fill="#000000"></path>
                <path d="M189.249507,512.437394 C145.633996,512.437394 110.292623,547.778768 110.292623,591.394278 C110.292623,634.993099 145.633996,670.338644 189.249507,670.338644 C232.848327,670.338644 268.193873,634.993099 268.193873,591.394278 C268.193873,547.774595 232.8525,512.437394 189.249507,512.437394 L189.249507,512.437394 Z M752.988222,871.283768 C715.222606,893.085264 702.296092,941.353151 724.089243,979.102077 C745.894912,1016.86769 794.158627,1029.80255 831.924243,1008.00106 C869.677342,986.203732 882.612201,937.935845 860.810704,900.174401 C839.01338,862.425475 790.74132,849.486444 752.988222,871.283768 L752.988222,871.283768 Z M360.749049,591.381761 C360.749049,513.35118 399.524419,444.429243 458.820317,402.695546 L401.097465,306.005387 C332.000282,352.170317 280.602993,422.744577 259.25213,505.4025 C284.191373,525.731092 300.126285,556.68713 300.126285,591.390106 C300.126285,626.084736 284.191373,657.040775 259.247958,677.365194 C280.594648,760.031461 331.996109,830.605722 401.093292,876.766479 L458.820317,780.067975 C399.524419,738.342623 360.749049,669.424859 360.749049,591.381761 L360.749049,591.381761 Z M591.385933,360.744877 C711.876232,360.744877 810.711074,453.128979 821.071479,570.927993 L933.596408,569.284014 C928.059454,482.31169 890.068521,404.210176 831.682236,346.808609 C801.665018,358.14956 766.987077,356.430475 737.015757,339.122799 C707.006884,321.798433 688.176232,292.573996 683.018979,260.858556 C653.844613,252.784701 623.138926,248.382676 591.390106,248.382676 C536.78831,248.382676 485.203257,261.200704 439.380475,283.899296 L494.232623,382.204225 C523.761655,368.464067 556.666268,360.744877 591.385933,360.744877 L591.385933,360.744877 Z M591.385933,822.022817 C556.662095,822.022817 523.761655,814.303627 494.228451,800.563468 L439.367958,898.876743 C485.194912,921.566989 536.784137,934.38919 591.385933,934.38919 C623.134754,934.38919 653.84044,929.987165 683.018979,921.91331 C688.176232,890.19787 707.011056,860.973433 737.024102,843.636549 C766.995423,826.337218 801.673363,824.618134 831.690581,835.963257 C890.072694,778.557518 928.063627,700.456004 933.592236,613.48368 L821.067306,611.839701 C810.715246,729.655405 711.876232,822.022817 591.385933,822.022817 L591.385933,822.022817 Z M752.975704,311.475581 C790.737148,333.285423 839.009208,320.346391 860.802359,282.597465 C882.608028,244.831849 869.681514,196.563961 831.915898,174.758292 C794.158627,152.960968 745.890739,165.895827 724.08507,203.661444 C702.287746,241.41037 715.222606,289.68243 752.975704,311.475581 L752.975704,311.475581 Z" id="Shape" fill="#FFFFFF"></path>
            </g>
        </g>
    </g>
</svg>