<?xml version="1.0" encoding="UTF-8"?>
<svg width="4606px" height="1195px" viewBox="0 0 4606 1195" version="1.1" xmlns="http://www.w3.org/2000/svg" xmlns:xlink="http://www.w3.org/1999/xlink" xmlns:sketch="http://www.bohemiancoding.com/sketch/ns">
    <!-- Generator: Sketch 3.5.2 (25235) - http://www.bohemiancoding.com/sketch -->
    <title>platforms</title>
    <desc>Created with Sketch.</desc>
    <defs></defs>
    <g id="Page-1" stroke="none" stroke-width="1" fill="none" fill-rule="evenodd" sketch:type="MSPage">
        <g id="platforms" sketch:type="MSArtboardGroup" transform="translate(-307.000000, -285.000000)" fill="#FFFFFF">
            <g sketch:type="MSLayerGroup" transform="translate(307.000000, 163.000000)">
                <g id="Layer-1" transform="translate(0.000000, 269.000000)" sketch:type="MSShapeGroup">
                    <path d="M429.528846,552.971154 L429.528846,962.975961 L0,903.774039 L0,552.971154 L429.528846,552.971154 L429.528846,552.971154 L429.528846,552.971154 Z M429.528846,85.0240384 L429.528846,500.067308 L0,500.067308 L0,144.225961 L429.528846,85.0240384 L429.528846,85.0240384 L429.528846,85.0240384 Z M1048,552.971154 L1048,1048 L476.764423,969.274039 L476.764423,552.971154 L1048,552.971154 L1048,552.971154 L1048,552.971154 Z M1048,0 L1048,500.067308 L476.764423,500.067308 L476.764423,78.7259616 L1048,0 L1048,0 L1048,0 Z" id="svg_1"></path>
                </g>
                <g id="Group" transform="translate(2329.500000, 692.500000) scale(1, -1) translate(-2329.500000, -692.500000) translate(1849.000000, 122.000000)" sketch:type="MSShapeGroup">
                    <path d="M707.231217,1139.57217 C658.069675,1133.58851 599.850561,1106.06372 562.993646,1071.30155 C516.053773,1027.07952 485.520069,966.95807 480.507073,908.660209 C479.823483,900.568032 480.051346,877.203298 480.905834,872.587339 L481.247629,870.649775 L493.609222,870.649775 C518.617237,870.649775 539.011017,874.752851 562.082192,884.497654 C608.395441,903.987262 655.620143,947.012565 685.69812,997.275237 C703.414504,1026.90856 713.668359,1055.91502 718.33956,1089.65142 C719.421912,1097.68661 720.105502,1126.69307 719.364946,1134.84223 L718.909219,1140.19903 L716.516653,1140.313 C715.206438,1140.36999 710.990964,1140.02806 707.231217,1139.57217 L707.231217,1139.57217 L707.231217,1139.57217 Z" id="Shape"></path>
                    <path d="M684.330939,870.022917 C651.860396,867.800418 620.130409,859.993177 571.139765,842.213184 C543.967047,832.354406 513.490309,822.324667 501.185682,819.24736 C491.900246,816.967874 488.824089,816.625951 482.785708,817.366784 C469.911422,819.019412 442.11208,827.510498 405.767858,840.90248 C353.701057,860.050164 322.825558,867.287533 293.31724,867.230546 C234.35757,867.116572 175.397899,846.829144 126.122426,809.730505 C90.006067,782.490644 60.6686465,746.816685 38.5089249,703.107536 C17.0897596,660.709091 5.01299614,614.43552 0.740556248,557.7333 C-0.227863461,545.196125 -0.227863461,505.02018 0.740556248,491.571211 C4.61423508,436.464631 14.2414663,387.284715 31.7299869,332.748006 C54.6302647,261.229125 86.7590127,196.434728 127.43264,139.732507 C154.434461,102.177971 174.315548,77.7304813 193.968771,58.0129252 C220.685762,31.342936 242.503688,16.0133909 266.31542,7.23736886 C301.748188,-5.7557028 335.47198,-1.59564038 399.843408,23.6496699 C421.490437,32.1977434 438.352333,37.3265874 456.638376,40.9737654 C490.646997,47.7552371 519.300827,47.5842756 551.999234,40.3469067 C569.259891,36.5287672 582.36204,32.3117177 605.547147,23.2507598 C639.783632,9.8017909 663.3675,3.64717801 687.691925,1.70961469 C720.105502,-0.797820189 754.683782,10.4856368 784.47693,33.3374865 C811.364818,53.9098499 837.398219,83.5431713 873.799407,134.660651 C908.60555,183.555631 934.126258,232.393624 954.520038,289.038857 C956.741706,295.136483 958.906409,301.120134 959.362136,302.373852 L960.27359,304.653338 L956.513843,306.248978 C933.556599,316.107757 908.947345,331.836212 889.066258,349.331269 C835.746209,396.231698 808.17473,450.996356 802.876904,520.178764 C801.965451,532.146066 802.478143,560.411696 803.788358,571.467204 C807.149344,599.61886 813.985248,623.610452 825.321455,647.146148 C844.632884,687.265106 876.248939,721.571374 920.169621,750.12194 C925.125651,753.31322 929.170228,756.105591 929.170228,756.33354 C929.170228,756.504501 927.176422,759.296872 924.783856,762.431165 C890.14861,808.647749 844.974679,839.534788 787.09736,856.573948 C753.943226,866.375739 711.617588,871.903493 684.330939,870.022917 L684.330939,870.022917 L684.330939,870.022917 Z" id="Shape"></path>
                </g>
                <g id="Group" transform="translate(3403.000000, 0.000000)" sketch:type="MSShapeGroup">
                    <path d="M243.800717,660.147581 C187.613026,660.147581 142.084495,705.676114 142.084495,761.863804 C142.084495,818.029994 187.613026,863.5639 243.800717,863.5639 C299.966906,863.5639 345.500814,818.029994 345.500814,761.863804 C345.500814,705.670738 299.972282,660.147581 243.800717,660.147581 L243.800717,660.147581 L243.800717,660.147581 Z M970.037236,1122.4315 C921.385673,1150.51728 904.733089,1212.6984 932.80812,1261.32846 C960.899278,1309.98002 1023.07502,1326.64335 1071.72658,1298.55758 C1120.36202,1270.47717 1137.02535,1208.29605 1108.93957,1159.64986 C1080.85916,1111.0198 1018.67267,1094.35109 970.037236,1122.4315 L970.037236,1122.4315 L970.037236,1122.4315 Z M464.735039,761.847679 C464.735039,661.324766 514.687417,572.536066 591.07537,518.772622 L516.713894,394.211504 C427.699433,453.683485 361.486865,544.600791 333.981611,651.084877 C366.109596,677.27319 386.63775,717.152313 386.63775,761.858429 C386.63775,806.553793 366.109596,846.432917 333.976237,872.615854 C361.476115,979.11069 427.694058,1070.028 516.708518,1129.4946 L591.07537,1004.92273 C514.687417,951.17004 464.735039,862.386716 464.735039,761.847679 L464.735039,761.847679 L464.735039,761.847679 Z M761.853053,464.729664 C917.074706,464.729664 1044.39871,583.743503 1057.74551,735.498108 L1202.70577,733.380251 C1195.57279,621.338137 1146.63096,520.723845 1071.41482,446.776264 C1032.74513,461.386246 988.071264,459.171635 949.460705,436.875017 C910.801768,414.556899 886.543176,376.908512 879.899344,336.05109 C842.315461,325.649944 802.758853,319.979035 761.858429,319.979035 C691.517654,319.979035 625.063198,336.491862 566.03199,365.733328 L636.695281,492.374674 C674.736063,474.673912 717.125437,464.729664 761.853053,464.729664 L761.853053,464.729664 L761.853053,464.729664 Z M761.853053,1058.97107 C717.120062,1058.97107 674.736063,1049.02682 636.689906,1031.32606 L566.015865,1157.97815 C625.052448,1187.20887 691.512278,1203.72707 761.853053,1203.72707 C802.753479,1203.72707 842.310085,1198.05616 879.899344,1187.65502 C886.543176,1146.79759 910.807142,1109.14921 949.471455,1086.81496 C988.082016,1064.5291 1032.75588,1062.31449 1071.42557,1076.92984 C1146.63634,1002.97689 1195.57816,902.362595 1202.7004,790.32048 L1057.74013,788.202624 C1044.40409,939.97873 917.074706,1058.97107 761.853053,1058.97107 L761.853053,1058.97107 L761.853053,1058.97107 Z M970.02111,401.258483 C1018.6673,429.355017 1080.85379,412.686306 1108.92882,364.056244 C1137.01998,315.404681 1120.36739,253.223564 1071.71583,225.132407 C1023.07502,197.051999 960.893902,213.715334 932.802744,262.366898 C904.722337,310.99696 921.385673,373.183452 970.02111,401.258483 L970.02111,401.258483 L970.02111,401.258483 Z" id="Shape"></path>
                </g>
            </g>
        </g>
    </g>
</svg>